<svg width="274" height="274" viewBox="0 0 274 274" fill="none" xmlns="http://www.w3.org/2000/svg">
<path d="M51.1934 231.757H70.8002V89.7864L140.425 195.042L152.839 213.798L159.469 223.808C161.548 226.916 163.581 230.117 165.692 233.147C166.755 234.677 167.959 235.661 169.084 236.551C169.632 236.895 170.226 237.317 170.742 237.582C171.258 237.832 171.805 238.129 172.305 238.316H172.352C174.103 239.05 176.574 239.565 179.107 239.362C181.624 239.191 184.204 238.3 186.205 236.989L186.252 236.957C188.676 235.474 190.786 232.725 192.131 230.492L192.162 230.445C193.226 228.618 194.414 226.119 194.539 222.731L194.601 212.471L194.648 201.898L194.758 181.378L194.961 140.337L195.352 62.8009L203.263 65.1903V202.085L152.98 123.628L148.852 126.267L144.724 128.906L140.597 131.545L136.469 134.184L180.076 202.21L186.44 212.127L191.115 219.42C192.647 221.731 193.96 224.011 195.227 225.698C197.807 228.993 199.839 229.883 200.918 230.445L202.591 231.164H202.622C204.295 231.726 206.781 232.147 209.393 231.835C211.503 231.538 213.645 230.851 215.412 229.758C217.195 228.712 218.586 227.338 219.493 226.244V226.213L219.571 226.135V226.104C220.994 224.214 222.698 221.388 222.855 216.687V64.347C222.761 60.4428 221.494 56.6168 219.243 53.4778C217.007 50.3389 213.755 47.9183 210.034 46.7783C210.002 46.7783 209.987 46.7471 209.971 46.7471L209.471 46.6065L194.773 42.1558L191.724 41.2344C190.724 40.9845 189.723 40.7971 188.816 40.7971C186.987 40.7347 185.408 41.047 184.157 41.4999H184.11C183.844 41.6092 183.563 41.7185 183.281 41.8591C181.124 42.7804 178.966 44.7481 177.918 46.4347L177.887 46.4816C177.324 47.3093 176.84 48.3712 176.417 49.5112C176.042 50.7293 175.776 52.0879 175.745 53.5871L174.948 211.752L156.748 184.236L114.501 120.379L93.3777 88.4434L78.5085 65.9711L73.2237 57.991C71.4725 55.1019 69.6588 53.5403 68.1422 52.7595C65.0933 51.1822 63.0763 51.3227 61.544 51.4008H61.5284C61.2626 51.432 60.6841 51.4945 59.9961 51.6663C58.8704 51.9162 57.6352 52.4784 57.2756 52.6814H57.2599L56.9629 52.8688C56.7596 53.0093 56.4938 53.103 56.0716 53.431L55.3368 54.0088L54.9146 54.3367C54.7583 54.4773 54.5863 54.6803 54.4143 54.8521C54.0703 55.2737 53.6951 55.5236 53.2729 56.2107L52.6318 57.1633C52.4286 57.5381 52.2253 58.0379 52.0064 58.5064C51.7719 58.9124 51.6312 59.5995 51.4592 60.2554C51.2403 60.8332 51.2247 61.7859 51.1465 62.6448V231.757H51.1934Z" fill="url(#paint0_linear_1509_387)"/>
<path d="M169.556 185.875L173.684 183.236L177.812 180.597L181.94 177.958L186.067 175.319L136.081 97.3136L117.584 68.4385L101.402 43.1709L99.0875 39.5634C98.7122 39.0637 98.3213 38.5327 97.9461 38.0798L96.836 37.0335C96.4764 36.7056 96.148 36.5494 95.8041 36.3152C95.4757 36.1122 95.1005 35.8154 94.819 35.7374C94.2405 35.5187 93.5526 35.1283 93.0679 35.0502L91.5356 34.691L90.2847 34.613C89.8313 34.5661 89.5186 34.613 89.1903 34.6442L88.2052 34.7379H88.1896C88.0489 34.7691 87.7205 34.8316 87.314 34.9253C86.6104 35.0971 85.8912 35.3938 85.7036 35.4875H85.6879C85.6879 35.4875 85.344 35.5968 84.484 36.1434C84.0462 36.4557 83.5302 36.6744 82.7954 37.4083L82.2325 37.9081L81.5915 38.6733C81.1537 39.1418 80.6846 39.9695 80.2155 40.8596C79.7934 41.9371 79.2774 43.0459 79.1992 45.1386C79.1523 47.2312 79.1992 49.6049 79.168 52.0099V231.757H98.7748V75.4035L119.57 107.87L169.556 185.875V185.875Z" fill="url(#paint1_linear_1509_387)"/>
<path d="M51.1934 231.757H70.8002V89.7864L140.425 195.042L152.839 213.798L159.469 223.808C161.548 226.916 163.581 230.117 165.692 233.147C166.755 234.677 167.959 235.661 169.084 236.551C169.632 236.895 170.226 237.317 170.742 237.582C171.258 237.832 171.805 238.129 172.305 238.316H172.352C174.103 239.05 176.574 239.565 179.107 239.362C181.624 239.191 184.204 238.3 186.205 236.989L186.252 236.957C188.676 235.474 190.786 232.725 192.131 230.492L192.162 230.445C193.226 228.618 194.414 226.119 194.539 222.731L194.601 212.471L194.648 201.898L194.758 181.378L194.961 140.337L195.352 62.8009L203.263 65.1903V202.085L152.98 123.628L148.852 126.267L144.724 128.906L140.597 131.545L136.469 134.184L180.076 202.21L186.44 212.127L191.115 219.42C192.647 221.731 193.96 224.011 195.227 225.698C197.807 228.993 199.839 229.883 200.918 230.445L202.591 231.164H202.622C204.295 231.726 206.781 232.147 209.393 231.835C211.503 231.538 213.645 230.851 215.412 229.758C217.195 228.712 218.586 227.338 219.493 226.244V226.213L219.571 226.135V226.104C220.994 224.214 222.698 221.388 222.855 216.687V64.347C222.761 60.4428 221.494 56.6168 219.243 53.4778C217.007 50.3389 213.755 47.9183 210.034 46.7783C210.002 46.7783 209.987 46.7471 209.971 46.7471L209.471 46.6065L194.773 42.1558L191.724 41.2344C190.724 40.9845 189.723 40.7971 188.816 40.7971C186.987 40.7347 185.408 41.047 184.157 41.4999H184.11C183.844 41.6092 183.563 41.7185 183.281 41.8591C181.124 42.7804 178.966 44.7481 177.918 46.4347L177.887 46.4816C177.324 47.3093 176.84 48.3712 176.417 49.5112C176.042 50.7293 175.776 52.0879 175.745 53.5871L174.948 211.752L156.748 184.236L114.501 120.379L93.3777 88.4434L78.5085 65.9711L73.2237 57.991C71.4725 55.1019 69.6588 53.5403 68.1422 52.7595C65.0933 51.1822 63.0763 51.3227 61.544 51.4008H61.5284C61.2626 51.432 60.6841 51.4945 59.9961 51.6663C58.8704 51.9162 57.6352 52.4784 57.2756 52.6814H57.2599L56.9629 52.8688C56.7596 53.0093 56.4938 53.103 56.0716 53.431L55.3368 54.0088L54.9146 54.3367C54.7583 54.4773 54.5863 54.6803 54.4143 54.8521C54.0703 55.2737 53.6951 55.5236 53.2729 56.2107L52.6318 57.1633C52.4286 57.5381 52.2253 58.0379 52.0064 58.5064C51.7719 58.9124 51.6312 59.5995 51.4592 60.2554C51.2403 60.8332 51.2247 61.7859 51.1465 62.6448V231.757H51.1934Z" fill="url(#paint2_linear_1509_387)"/>
<path d="M151.451 121.426L203.236 202.086L195.199 225.714L136.441 134.185L151.451 121.426Z" fill="url(#paint3_linear_1509_387)"/>
<defs>
<linearGradient id="paint0_linear_1509_387" x1="74.2713" y1="123.581" x2="443.533" y2="224.972" gradientUnits="userSpaceOnUse">
<stop stop-color="#E63139"/>
<stop offset="0.08" stop-color="#ED3139"/>
<stop offset="0.19" stop-color="#FF3139"/>
<stop offset="0.23" stop-color="#FA2F3D"/>
<stop offset="0.28" stop-color="#EF2C4B"/>
<stop offset="0.33" stop-color="#DB2763"/>
<stop offset="0.38" stop-color="#BF2083"/>
<stop offset="0.43" stop-color="#9C16AD"/>
<stop offset="0.49" stop-color="#710BE0"/>
<stop offset="0.51" stop-color="#6207F3"/>
</linearGradient>
<linearGradient id="paint1_linear_1509_387" x1="174.184" y1="76.1844" x2="39.4476" y2="178.567" gradientUnits="userSpaceOnUse">
<stop stop-color="#FF3139"/>
<stop offset="0.01" stop-color="#F32D46"/>
<stop offset="0.07" stop-color="#D1246E"/>
<stop offset="0.12" stop-color="#B31C92"/>
<stop offset="0.18" stop-color="#9A15B0"/>
<stop offset="0.25" stop-color="#8610C8"/>
<stop offset="0.32" stop-color="#760CDA"/>
<stop offset="0.41" stop-color="#6B09E8"/>
<stop offset="0.52" stop-color="#6407EF"/>
<stop offset="0.74" stop-color="#6307F2"/>
<stop offset="0.84" stop-color="#6006EF"/>
<stop offset="0.9" stop-color="#5806E7"/>
<stop offset="0.94" stop-color="#4906DA"/>
<stop offset="0.99" stop-color="#3506C6"/>
<stop offset="1" stop-color="#2E06C0"/>
</linearGradient>
<linearGradient id="paint2_linear_1509_387" x1="74.2713" y1="123.581" x2="443.533" y2="224.972" gradientUnits="userSpaceOnUse">
<stop stop-color="#FF3139"/>
<stop offset="0.1" stop-color="#FC303B"/>
<stop offset="0.17" stop-color="#F52E44"/>
<stop offset="0.22" stop-color="#E82B53"/>
<stop offset="0.27" stop-color="#D62668"/>
<stop offset="0.32" stop-color="#BF1F83"/>
<stop offset="0.36" stop-color="#A318A5"/>
<stop offset="0.4" stop-color="#820FCC"/>
<stop offset="0.43" stop-color="#6307F2"/>
</linearGradient>
<linearGradient id="paint3_linear_1509_387" x1="96.6962" y1="152.581" x2="301.486" y2="208.802" gradientUnits="userSpaceOnUse">
<stop stop-color="#750ADD"/>
<stop offset="0.2" stop-color="#7D0CD3"/>
<stop offset="0.54" stop-color="#9212B9"/>
<stop offset="0.8" stop-color="#A719A1"/>
</linearGradient>
</defs>
</svg>
