<svg width="751" height="163" viewBox="0 0 751 163" fill="none" xmlns="http://www.w3.org/2000/svg">
<path d="M287.446 128.97H263.188L229.989 71.1579C228.28 68.0356 226.584 64.6349 220.489 52.8837L217.508 46.9294H216.939L217.084 51.7461L217.23 56.708C217.375 56.9863 217.375 61.9482 217.375 66.6317V128.982H203.041V34.4521H227.153L256.524 86.455C259.784 92.264 261.492 95.3864 268.871 109.122L272.845 116.626H273.269V111.809L273.124 106.992C272.979 106.278 272.979 101.607 272.979 97.2138V34.4521H287.446V128.97V128.97Z" fill="#DE2861"/>
<path d="M368.59 36.7149C376.817 40.2608 381.361 47.1953 383.057 58.6803C383.772 62.9281 383.905 67.3212 383.905 79.9316C383.905 98.9198 383.626 102.744 382.197 109.691C380.355 117.908 375.811 123.572 368.856 126.549C362.761 129.103 356.945 129.804 343.326 129.804C327.72 129.804 322.328 129.09 316.088 126.404C309.278 123.427 305.025 117.896 303.184 109.824C301.62 103.168 301.342 99.4765 301.342 81.7711C301.342 58.9586 302.19 52.8712 306.455 45.7794C309.86 40.1156 315.676 36.2913 323.624 34.7301C327.029 34.0161 334.832 33.5925 343.205 33.5925C357.103 33.5925 363.064 34.3066 368.602 36.7149H368.59ZM369.292 81.4928V68.3135C369.292 57.9662 367.026 51.1648 362.761 48.6234C359.211 46.4934 355.249 46.0698 341.06 46.0698C324.46 46.0698 320.353 47.631 317.651 55.2796C316.088 59.951 315.942 61.6574 315.942 81.7711C315.942 93.486 316.181 100.949 316.657 104.16C317.651 110.247 319.917 113.939 324.036 115.5C327.587 116.916 331.415 117.339 342.757 117.339C355.661 117.339 359.926 116.77 363.185 114.362C367.014 111.675 369.28 104.438 369.28 94.672V81.4928H369.292Z" fill="#DE2861"/>
<path d="M398.244 34.4521H444.07C465.771 34.4521 473.295 41.6771 473.295 62.0813C473.295 80.2224 469.745 85.6079 456.55 88.0162V88.4398C466.91 89.0086 472.301 95.3864 472.156 106.714V128.958H457.543V109.824C457.822 98.6298 452.866 93.9583 441.513 94.3819H412.711V128.958H398.244V34.4521ZM440.798 81.9167C447.184 81.9167 451.291 81.0696 453.993 79.0848C457.677 76.5313 458.67 73.421 458.67 65.2037C458.67 54.1544 457.677 50.8868 453.557 48.6237C451.424 47.4861 447.886 46.9173 443.197 46.9173H412.699V81.9167H440.786H440.798Z" fill="#DE2861"/>
<path d="M501.801 75.8293H545.918V87.871H501.801V128.958H487.334V34.4521H547.772V46.639H501.801V75.8293Z" fill="#DE2861"/>
<path d="M568.622 109.982L562.091 128.97H546.775L579.83 34.4644H600.973L634.452 128.97H619.415L612.751 109.982H568.634H568.622ZM590.614 45.792L572.317 98.9324H609.201L590.614 45.792V45.792Z" fill="#DE2861"/>
<path d="M657.852 128.97H643.385V34.4521H657.852V128.97Z" fill="#DE2861"/>
<path d="M675.166 34.4521H720.991C742.692 34.4521 750.217 41.6771 750.217 62.0813C750.217 80.2224 746.667 85.6079 733.472 88.0162V88.4398C743.831 89.0086 749.223 95.3864 749.078 106.714V128.958H734.465V109.824C734.744 98.6298 729.788 93.9583 718.435 94.3819H689.633V128.958H675.166V34.4521ZM717.72 81.9167C724.105 81.9167 728.213 81.0696 730.915 79.0848C734.598 76.5313 735.592 73.421 735.592 65.2037C735.592 54.1544 734.598 50.8868 730.479 48.6237C728.346 47.4861 724.808 46.9173 720.119 46.9173H689.621V81.9167H717.708H717.72Z" fill="#DE2861"/>
<path d="M0.376919 156.595H15.8742V44.3805L70.9057 127.575L80.7182 142.4L85.9581 150.312C87.6018 152.768 89.2083 155.299 90.8767 157.693C91.7171 158.903 92.6687 159.68 93.5585 160.384C93.991 160.656 94.4606 160.989 94.8684 161.199C95.2763 161.396 95.7088 161.631 96.1043 161.779H96.1413C97.5255 162.359 99.4781 162.766 101.48 162.606C103.47 162.47 105.509 161.767 107.091 160.73L107.128 160.705C109.043 159.532 110.712 157.36 111.775 155.595L111.799 155.558C112.64 154.114 113.579 152.139 113.678 149.46L113.727 141.35L113.764 132.994L113.851 116.775L114.011 84.3361L114.32 23.051L120.574 24.9396V133.142L80.8294 71.1287L77.5668 73.2147L74.3042 75.3008L71.0416 77.3868L67.7791 79.4728L102.246 133.241L107.276 141.079L110.971 146.843C112.182 148.67 113.221 150.472 114.222 151.805C116.261 154.41 117.867 155.113 118.72 155.558L120.042 156.126H120.067C121.389 156.57 123.354 156.903 125.418 156.656C127.087 156.422 128.78 155.879 130.176 155.015C131.585 154.188 132.685 153.101 133.402 152.237V152.213L133.463 152.151V152.126C134.588 150.633 135.935 148.399 136.059 144.683V24.273C135.984 21.1872 134.983 18.163 133.204 15.682C131.437 13.201 128.866 11.2877 125.925 10.3866C125.9 10.3866 125.888 10.362 125.875 10.362L125.48 10.2509L113.863 6.73299L111.453 6.00473C110.662 5.80724 109.871 5.65912 109.155 5.65912C107.709 5.60974 106.461 5.85661 105.472 6.21457H105.435C105.225 6.30097 105.002 6.38738 104.78 6.49847C103.074 7.22673 101.369 8.782 100.541 10.1151L100.516 10.1521C100.071 10.8063 99.6882 11.6457 99.3545 12.5468C99.0579 13.5095 98.8478 14.5834 98.8231 15.7684L98.1928 140.783L83.8078 119.034L50.4157 68.5612L33.7196 43.3189L21.9669 25.5567L17.7898 19.2492C16.4056 16.9657 14.9721 15.7314 13.7733 15.1142C11.3634 13.8675 9.76922 13.9786 8.55811 14.0403H8.54575C8.33566 14.065 7.8784 14.1144 7.33464 14.2501C6.44484 14.4476 5.46854 14.892 5.1843 15.0525H5.17194L4.93713 15.2006C4.77647 15.3117 4.56638 15.3857 4.23271 15.645L3.65187 16.1017L3.31819 16.3609C3.19461 16.472 3.05867 16.6324 2.92273 16.7682C2.65084 17.1015 2.35425 17.299 2.02057 17.8421L1.51388 18.595C1.35322 18.8913 1.19257 19.2863 1.01955 19.6566C0.834175 19.9775 0.722951 20.5206 0.58701 21.039C0.413994 21.4957 0.401635 22.2487 0.339844 22.9276V156.595H0.376919Z" fill="url(#paint0_linear_1526_107)"/>
<path d="M93.9296 120.329L97.1922 118.243L100.455 116.157L103.717 114.071L106.98 111.985L67.4705 50.3297L52.8507 27.5067L40.0598 7.53499L38.2308 4.68366C37.9342 4.28867 37.6252 3.86899 37.3286 3.51103L36.4512 2.68402C36.167 2.42481 35.9074 2.30138 35.6356 2.11623C35.376 1.95576 35.0794 1.72124 34.857 1.65952C34.3997 1.48671 33.856 1.17813 33.4729 1.11641L32.2617 0.83251L31.2731 0.770793C30.9147 0.733763 30.6675 0.770793 30.408 0.79548L29.6294 0.86954H29.6171C29.5058 0.894227 29.2463 0.943601 28.925 1.01766C28.3689 1.15344 27.8004 1.38796 27.6521 1.46203H27.6397C27.6397 1.46203 27.3679 1.54843 26.6881 1.98045C26.3421 2.22732 25.9343 2.40013 25.3535 2.98027L24.9086 3.37526L24.4019 3.98009C24.0558 4.35039 23.6851 5.00459 23.3143 5.70817C22.9807 6.55986 22.5728 7.43625 22.511 9.09027C22.474 10.7443 22.511 12.6205 22.4863 14.5214V156.594H37.9836V33.0118L54.4202 58.6738L93.9296 120.329V120.329Z" fill="url(#paint1_linear_1526_107)"/>
<path d="M0.376919 156.595H15.8742V44.3805L70.9057 127.575L80.7182 142.4L85.9581 150.312C87.6018 152.768 89.2083 155.299 90.8767 157.693C91.7171 158.903 92.6687 159.68 93.5585 160.384C93.991 160.656 94.4606 160.989 94.8684 161.199C95.2763 161.396 95.7088 161.631 96.1043 161.779H96.1413C97.5255 162.359 99.4781 162.766 101.48 162.606C103.47 162.47 105.509 161.767 107.091 160.73L107.128 160.705C109.043 159.532 110.712 157.36 111.775 155.595L111.799 155.558C112.64 154.114 113.579 152.139 113.678 149.46L113.727 141.35L113.764 132.994L113.851 116.775L114.011 84.3361L114.32 23.051L120.574 24.9396V133.142L80.8294 71.1287L77.5668 73.2147L74.3042 75.3008L71.0416 77.3868L67.7791 79.4728L102.246 133.241L107.276 141.079L110.971 146.843C112.182 148.67 113.221 150.472 114.222 151.805C116.261 154.41 117.867 155.113 118.72 155.558L120.042 156.126H120.067C121.389 156.57 123.354 156.903 125.418 156.656C127.087 156.422 128.78 155.879 130.176 155.015C131.585 154.188 132.685 153.101 133.402 152.237V152.213L133.463 152.151V152.126C134.588 150.633 135.935 148.399 136.059 144.683V24.273C135.984 21.1872 134.983 18.163 133.204 15.682C131.437 13.201 128.866 11.2877 125.925 10.3866C125.9 10.3866 125.888 10.362 125.875 10.362L125.48 10.2509L113.863 6.73299L111.453 6.00473C110.662 5.80724 109.871 5.65912 109.155 5.65912C107.709 5.60974 106.461 5.85661 105.472 6.21457H105.435C105.225 6.30097 105.002 6.38738 104.78 6.49847C103.074 7.22673 101.369 8.782 100.541 10.1151L100.516 10.1521C100.071 10.8063 99.6882 11.6457 99.3545 12.5468C99.0579 13.5095 98.8478 14.5834 98.8231 15.7684L98.1928 140.783L83.8078 119.034L50.4157 68.5612L33.7196 43.3189L21.9669 25.5567L17.7898 19.2492C16.4056 16.9657 14.9721 15.7314 13.7733 15.1142C11.3634 13.8675 9.76922 13.9786 8.55811 14.0403H8.54575C8.33566 14.065 7.8784 14.1144 7.33464 14.2501C6.44484 14.4476 5.46854 14.892 5.1843 15.0525H5.17194L4.93713 15.2006C4.77647 15.3117 4.56638 15.3857 4.23271 15.645L3.65187 16.1017L3.31819 16.3609C3.19461 16.472 3.05867 16.6324 2.92273 16.7682C2.65084 17.1015 2.35425 17.299 2.02057 17.8421L1.51388 18.595C1.35322 18.8913 1.19257 19.2863 1.01955 19.6566C0.834175 19.9775 0.722951 20.5206 0.58701 21.039C0.413994 21.4957 0.401635 22.2487 0.339844 22.9276V156.595H0.376919Z" fill="url(#paint2_linear_1526_107)"/>
<path d="M79.6218 69.3882L120.552 133.142L114.2 151.818L67.7578 79.4728L79.6218 69.3882Z" fill="url(#paint3_linear_1526_107)"/>
<defs>
<linearGradient id="paint0_linear_1526_107" x1="18.6178" y1="71.0916" x2="310.484" y2="151.232" gradientUnits="userSpaceOnUse">
<stop stop-color="#E63139"/>
<stop offset="0.08" stop-color="#ED3139"/>
<stop offset="0.19" stop-color="#FF3139"/>
<stop offset="0.23" stop-color="#FA2F3D"/>
<stop offset="0.28" stop-color="#EF2C4B"/>
<stop offset="0.33" stop-color="#DB2763"/>
<stop offset="0.38" stop-color="#BF2083"/>
<stop offset="0.43" stop-color="#9C16AD"/>
<stop offset="0.49" stop-color="#710BE0"/>
<stop offset="0.51" stop-color="#6207F3"/>
</linearGradient>
<linearGradient id="paint1_linear_1526_107" x1="97.5877" y1="33.629" x2="-8.90882" y2="114.553" gradientUnits="userSpaceOnUse">
<stop stop-color="#FF3139"/>
<stop offset="0.01" stop-color="#F32D46"/>
<stop offset="0.07" stop-color="#D1246E"/>
<stop offset="0.12" stop-color="#B31C92"/>
<stop offset="0.18" stop-color="#9A15B0"/>
<stop offset="0.25" stop-color="#8610C8"/>
<stop offset="0.32" stop-color="#760CDA"/>
<stop offset="0.41" stop-color="#6B09E8"/>
<stop offset="0.52" stop-color="#6407EF"/>
<stop offset="0.74" stop-color="#6307F2"/>
<stop offset="0.84" stop-color="#6006EF"/>
<stop offset="0.9" stop-color="#5806E7"/>
<stop offset="0.94" stop-color="#4906DA"/>
<stop offset="0.99" stop-color="#3506C6"/>
<stop offset="1" stop-color="#2E06C0"/>
</linearGradient>
<linearGradient id="paint2_linear_1526_107" x1="18.6178" y1="71.0916" x2="310.484" y2="151.232" gradientUnits="userSpaceOnUse">
<stop stop-color="#FF3139"/>
<stop offset="0.1" stop-color="#FC303B"/>
<stop offset="0.17" stop-color="#F52E44"/>
<stop offset="0.22" stop-color="#E82B53"/>
<stop offset="0.27" stop-color="#D62668"/>
<stop offset="0.32" stop-color="#BF1F83"/>
<stop offset="0.36" stop-color="#A318A5"/>
<stop offset="0.4" stop-color="#820FCC"/>
<stop offset="0.43" stop-color="#6307F2"/>
</linearGradient>
<linearGradient id="paint3_linear_1526_107" x1="36.343" y1="94.0133" x2="198.209" y2="138.45" gradientUnits="userSpaceOnUse">
<stop stop-color="#750ADD"/>
<stop offset="0.2" stop-color="#7D0CD3"/>
<stop offset="0.54" stop-color="#9212B9"/>
<stop offset="0.8" stop-color="#A719A1"/>
</linearGradient>
</defs>
</svg>
