<svg width="1412" height="390" viewBox="0 0 1412 390" fill="none" xmlns="http://www.w3.org/2000/svg">
<g clip-path="url(#clip0_1509_355)">
<path d="M79.6068 315.7H104.636V134.462L193.518 268.83L209.366 292.773L217.829 305.552C220.484 309.519 223.079 313.606 225.773 317.474C227.131 319.428 228.667 320.684 230.105 321.82C230.803 322.259 231.562 322.797 232.22 323.136C232.879 323.455 233.578 323.833 234.216 324.073H234.276C236.512 325.01 239.665 325.668 242.899 325.408C246.112 325.189 249.406 324.053 251.961 322.378L252.021 322.338C255.114 320.444 257.809 316.936 259.526 314.085L259.565 314.025C260.923 311.693 262.44 308.503 262.599 304.177L262.679 291.079L262.739 277.582L262.879 251.386L263.138 198.995L263.637 100.013L273.737 103.063V277.821L209.546 177.663L204.276 181.033L199.007 184.402L193.738 187.771L188.468 191.14L244.136 277.981L252.26 290.64L258.228 299.95C260.184 302.901 261.861 305.811 263.478 307.964C266.771 312.171 269.366 313.307 270.743 314.025L272.879 314.942H272.919C275.054 315.66 278.228 316.198 281.561 315.799C284.256 315.421 286.99 314.543 289.246 313.148C291.521 311.812 293.298 310.058 294.455 308.662V308.622L294.555 308.523V308.483C296.372 306.071 298.547 302.462 298.747 296.461V101.987C298.627 97.0026 297.01 92.1183 294.136 88.1112C291.282 84.1041 287.13 81.014 282.38 79.5587C282.34 79.5587 282.32 79.5188 282.3 79.5188L281.661 79.3394L262.899 73.6577L259.007 72.4814C257.729 72.1625 256.452 71.9232 255.294 71.9232C252.959 71.8435 250.943 72.2422 249.346 72.8203H249.286C248.947 72.9599 248.587 73.0995 248.228 73.2789C245.474 74.4551 242.719 76.967 241.382 79.1201L241.342 79.1799C240.623 80.2365 240.005 81.5922 239.466 83.0475C238.987 84.6025 238.647 86.3369 238.608 88.2507L237.59 290.162L214.356 255.035L160.424 173.517L133.459 132.748L114.477 104.06L107.73 93.8727C105.495 90.1845 103.179 88.1909 101.243 87.1941C97.3511 85.1806 94.7763 85.36 92.8202 85.4597H92.8003C92.4609 85.4996 91.7224 85.5793 90.8442 85.7986C89.4071 86.1176 87.8302 86.8353 87.3712 87.0945H87.3512L86.972 87.3337C86.7125 87.5131 86.3732 87.6327 85.8343 88.0514L84.8961 88.789L84.3572 89.2077C84.1576 89.3871 83.9381 89.6463 83.7185 89.8656C83.2794 90.4038 82.8003 90.7228 82.2614 91.6L81.4431 92.8161C81.1836 93.2945 80.9241 93.9325 80.6447 94.5306C80.3453 95.0489 80.1656 95.9261 79.9461 96.7634C79.6666 97.501 79.6467 98.7171 79.5469 99.8136V315.7H79.6068Z" fill="url(#paint0_linear_1509_355)"/>
<path d="M570.062 293.69H530.103L475.412 198.456C472.598 193.313 469.804 187.711 459.764 168.353L454.854 158.545H453.916L454.155 166.479L454.395 174.653C454.634 175.112 454.634 183.285 454.634 191V293.71H431.021V137.991H470.742L519.125 223.655C524.494 233.225 527.308 238.368 539.464 260.995L546.011 273.356H546.709V265.421L546.47 257.487C546.23 256.311 546.23 248.615 546.23 241.379V137.991H570.062V293.69V293.69Z" fill="#6207F3"/>
<path d="M703.735 141.719C717.287 147.56 724.772 158.983 727.567 177.903C728.744 184.9 728.964 192.137 728.964 212.91C728.964 244.19 728.505 250.489 726.15 261.932C723.116 275.469 715.631 284.799 704.174 289.703C694.134 293.91 684.553 295.066 662.118 295.066C636.41 295.066 627.528 293.89 617.248 289.464C606.031 284.56 599.025 275.449 595.991 262.152C593.416 251.187 592.957 245.107 592.957 215.94C592.957 178.361 594.354 168.333 601.38 156.651C606.989 147.321 616.57 141.021 629.663 138.449C635.272 137.273 648.126 136.575 661.919 136.575C684.813 136.575 694.633 137.752 703.755 141.719H703.735ZM704.892 215.482V193.772C704.892 176.726 701.16 165.522 694.134 161.336C688.286 157.827 681.759 157.129 658.386 157.129C631.041 157.129 624.274 159.701 619.823 172.301C617.248 179.996 617.009 182.807 617.009 215.94C617.009 235.238 617.401 247.532 618.186 252.822C619.823 262.85 623.556 268.93 630.342 271.502C636.19 273.834 642.498 274.532 661.18 274.532C682.437 274.532 689.463 273.595 694.833 269.628C701.14 265.202 704.872 253.28 704.872 237.192V215.482H704.892Z" fill="#6207F3"/>
<path d="M752.576 137.991H828.065C863.813 137.991 876.208 149.893 876.208 183.505C876.208 213.388 870.36 222.26 848.623 226.227V226.925C865.689 227.862 874.571 238.368 874.332 257.028V293.67H850.26V262.152C850.719 243.711 842.555 236.016 823.853 236.714H776.408V293.67H752.576V137.991ZM822.675 216.18C833.194 216.18 839.961 214.784 844.412 211.515C850.48 207.308 852.116 202.184 852.116 188.648C852.116 170.447 850.48 165.064 843.693 161.336C840.18 159.462 834.352 158.525 826.628 158.525H776.388V216.18H822.655H822.675Z" fill="#6207F3"/>
<path d="M923.174 206.152H995.848V225.988H923.174V293.67H899.342V137.991H998.902V158.066H923.174V206.152Z" fill="#6207F3"/>
<path d="M1033.25 262.411L1022.49 293.69H997.266L1051.72 138.011H1086.55L1141.7 293.69H1116.93L1105.95 262.411H1033.27H1033.25ZM1069.48 156.671L1039.34 244.209H1100.1L1069.48 156.671V156.671Z" fill="#6207F3"/>
<path d="M1180.24 293.69H1156.4V137.991H1180.24V293.69Z" fill="#6207F3"/>
<path d="M1208.76 137.991H1284.25C1320 137.991 1332.39 149.893 1332.39 183.505C1332.39 213.388 1326.54 222.26 1304.81 226.227V226.925C1321.87 227.862 1330.75 238.368 1330.52 257.028V293.67H1306.44V262.152C1306.9 243.711 1298.74 236.016 1280.04 236.714H1232.59V293.67H1208.76V137.991ZM1278.86 216.18C1289.38 216.18 1296.14 214.784 1300.6 211.515C1306.66 207.308 1308.3 202.184 1308.3 188.648C1308.3 170.447 1306.66 165.064 1299.88 161.336C1296.36 159.462 1290.54 158.525 1282.81 158.525H1232.57V216.18H1278.84H1278.86Z" fill="#6207F3"/>
<path d="M230.703 257.128L235.972 253.759L241.242 250.39L246.511 247.02L251.78 243.651L187.969 144.071L164.356 107.21L143.697 74.9535L140.743 70.3483C140.264 69.7103 139.765 69.0325 139.286 68.4544L137.869 67.1187C137.41 66.7 136.991 66.5007 136.552 66.2016C136.133 65.9424 135.654 65.5637 135.294 65.464C134.556 65.1849 133.678 64.6865 133.059 64.5868L131.103 64.1283L129.506 64.0286C128.927 63.9688 128.528 64.0286 128.109 64.0685L126.851 64.1881H126.831C126.652 64.228 126.233 64.3077 125.714 64.4273C124.815 64.6466 123.897 65.0254 123.658 65.145H123.638C123.638 65.145 123.199 65.2846 122.101 65.9823C121.542 66.381 120.883 66.6601 119.945 67.5971L119.227 68.2351L118.408 69.2119C117.849 69.81 117.251 70.8666 116.652 72.003C116.113 73.3785 115.454 74.794 115.354 77.4654C115.294 80.1368 115.354 83.1671 115.314 86.2372V315.7H140.344V116.101L166.891 157.548L230.703 257.128V257.128Z" fill="url(#paint1_linear_1509_355)"/>
<path d="M79.6068 315.7H104.636V134.462L193.518 268.83L209.366 292.773L217.829 305.552C220.484 309.519 223.079 313.606 225.773 317.474C227.131 319.428 228.667 320.684 230.105 321.82C230.803 322.259 231.562 322.797 232.22 323.136C232.879 323.455 233.578 323.833 234.216 324.073H234.276C236.512 325.01 239.665 325.668 242.899 325.408C246.112 325.189 249.406 324.053 251.961 322.378L252.021 322.338C255.114 320.444 257.809 316.936 259.526 314.085L259.565 314.025C260.923 311.693 262.44 308.503 262.599 304.177L262.679 291.079L262.739 277.582L262.879 251.386L263.138 198.995L263.637 100.013L273.737 103.063V277.821L209.546 177.663L204.276 181.033L199.007 184.402L193.738 187.771L188.468 191.14L244.136 277.981L252.26 290.64L258.228 299.95C260.184 302.901 261.861 305.811 263.478 307.964C266.771 312.171 269.366 313.307 270.743 314.025L272.879 314.942H272.919C275.054 315.66 278.228 316.198 281.561 315.799C284.256 315.421 286.99 314.543 289.246 313.148C291.521 311.812 293.298 310.058 294.455 308.662V308.622L294.555 308.523V308.483C296.372 306.071 298.547 302.462 298.747 296.461V101.987C298.627 97.0026 297.01 92.1183 294.136 88.1112C291.282 84.1041 287.13 81.014 282.38 79.5587C282.34 79.5587 282.32 79.5188 282.3 79.5188L281.661 79.3394L262.899 73.6577L259.007 72.4814C257.729 72.1625 256.452 71.9232 255.294 71.9232C252.959 71.8435 250.943 72.2422 249.346 72.8203H249.286C248.947 72.9599 248.587 73.0995 248.228 73.2789C245.474 74.4551 242.719 76.967 241.382 79.1201L241.342 79.1799C240.623 80.2365 240.005 81.5922 239.466 83.0475C238.987 84.6025 238.647 86.3369 238.608 88.2507L237.59 290.162L214.356 255.035L160.424 173.517L133.459 132.748L114.477 104.06L107.73 93.8727C105.495 90.1845 103.179 88.1909 101.243 87.1941C97.3511 85.1806 94.7763 85.36 92.8202 85.4597H92.8003C92.4609 85.4996 91.7224 85.5793 90.8442 85.7986C89.4071 86.1176 87.8302 86.8353 87.3712 87.0945H87.3512L86.972 87.3337C86.7125 87.5131 86.3732 87.6327 85.8343 88.0514L84.8961 88.789L84.3572 89.2077C84.1576 89.3871 83.9381 89.6463 83.7185 89.8656C83.2794 90.4038 82.8003 90.7228 82.2614 91.6L81.4431 92.8161C81.1836 93.2945 80.9241 93.9325 80.6447 94.5306C80.3453 95.0489 80.1656 95.9261 79.9461 96.7634C79.6666 97.501 79.6467 98.7171 79.5469 99.8136V315.7H79.6068Z" fill="url(#paint2_linear_1509_355)"/>
<path d="M207.591 174.852L273.698 277.821L263.439 307.984L188.43 191.14L207.591 174.852Z" fill="url(#paint3_linear_1509_355)"/>
</g>
<defs>
<linearGradient id="paint0_linear_1509_355" x1="109.068" y1="177.604" x2="580.462" y2="307.038" gradientUnits="userSpaceOnUse">
<stop stop-color="#E63139"/>
<stop offset="0.08" stop-color="#ED3139"/>
<stop offset="0.19" stop-color="#FF3139"/>
<stop offset="0.23" stop-color="#FA2F3D"/>
<stop offset="0.28" stop-color="#EF2C4B"/>
<stop offset="0.33" stop-color="#DB2763"/>
<stop offset="0.38" stop-color="#BF2083"/>
<stop offset="0.43" stop-color="#9C16AD"/>
<stop offset="0.49" stop-color="#710BE0"/>
<stop offset="0.51" stop-color="#6207F3"/>
</linearGradient>
<linearGradient id="paint1_linear_1509_355" x1="236.611" y1="117.098" x2="64.6081" y2="247.798" gradientUnits="userSpaceOnUse">
<stop stop-color="#FF3139"/>
<stop offset="0.01" stop-color="#F32D46"/>
<stop offset="0.07" stop-color="#D1246E"/>
<stop offset="0.12" stop-color="#B31C92"/>
<stop offset="0.18" stop-color="#9A15B0"/>
<stop offset="0.25" stop-color="#8610C8"/>
<stop offset="0.32" stop-color="#760CDA"/>
<stop offset="0.41" stop-color="#6B09E8"/>
<stop offset="0.52" stop-color="#6407EF"/>
<stop offset="0.74" stop-color="#6307F2"/>
<stop offset="0.84" stop-color="#6006EF"/>
<stop offset="0.9" stop-color="#5806E7"/>
<stop offset="0.94" stop-color="#4906DA"/>
<stop offset="0.99" stop-color="#3506C6"/>
<stop offset="1" stop-color="#2E06C0"/>
</linearGradient>
<linearGradient id="paint2_linear_1509_355" x1="109.068" y1="177.604" x2="580.462" y2="307.038" gradientUnits="userSpaceOnUse">
<stop stop-color="#FF3139"/>
<stop offset="0.1" stop-color="#FC303B"/>
<stop offset="0.17" stop-color="#F52E44"/>
<stop offset="0.22" stop-color="#E82B53"/>
<stop offset="0.27" stop-color="#D62668"/>
<stop offset="0.32" stop-color="#BF1F83"/>
<stop offset="0.36" stop-color="#A318A5"/>
<stop offset="0.4" stop-color="#820FCC"/>
<stop offset="0.43" stop-color="#6307F2"/>
</linearGradient>
<linearGradient id="paint3_linear_1509_355" x1="137.692" y1="214.625" x2="399.122" y2="286.395" gradientUnits="userSpaceOnUse">
<stop stop-color="#750ADD"/>
<stop offset="0.2" stop-color="#7D0CD3"/>
<stop offset="0.54" stop-color="#9212B9"/>
<stop offset="0.8" stop-color="#A719A1"/>
</linearGradient>
<clipPath id="clip0_1509_355">
<rect width="1252.78" height="261.479" fill="white" transform="translate(79.6074 63.9888)"/>
</clipPath>
</defs>
</svg>
